# xmcd
#
# Track frame offsets:
#	150
#	16546
#	31218
#	55446
#	70166
#	91434
#	107830
#	130024
#	144901
#	166541
#	181261
#	205539
#
# Disc length: 3108 seconds
#
# Revision: 0
# Processed by: cddbd v1.5.2PL0 Copyright (c) Steve Scherf et al.
# Submitted via: dBpowerAMP V4.0
#
DISCID=8e0c220c
DTITLE=Organ Grinders - Swing out blues
DYEAR=2016
DGENRE=Blues
TTITLE0=One monkey dont stop no show
TTITLE1=You can have my hhusband
TTITLE2=I aint got nothing but the blues
TTITLE3=When the lights go out
TTITLE4=Baby doll
TTITLE5=Organ grinder's swing
TTITLE6=Why dont you do right
TTITLE7=Mama he treats you daughter means
TTITLE8=Aint nobodys business
TTITLE9=On revival day
TTITLE10=Big long slidin thing
TTITLE11=Doodlin
EXTD=
EXTT0=
EXTT1=
EXTT2=
EXTT3=
EXTT4=
EXTT5=
EXTT6=
EXTT7=
EXTT8=
EXTT9=
EXTT10=
EXTT11=
PLAYORDER=
